<svg width="101" height="25" viewBox="0 0 101 25" fill="none" xmlns="http://www.w3.org/2000/svg">
<ellipse cx="12.2017" cy="12.1637" rx="12.2017" ry="12.1637" fill="white"/>
<path d="M14.2183 18.1317V12.8147H16.0177L16.2851 10.733H14.2183V9.40695C14.2183 8.80623 14.3862 8.39493 15.2511 8.39493H16.3469V6.53892C15.8137 6.48196 15.2778 6.45445 14.7415 6.45653C13.1511 6.45653 12.0591 7.42443 12.0591 9.2013V10.7291H10.2715V12.8108H12.063V18.1317H14.2183Z" fill="#535399"/>
<ellipse cx="88.1107" cy="12.1637" rx="12.2017" ry="12.1637" fill="white"/>
<path d="M95.8191 7.71289C95.2757 7.95291 94.692 8.1151 94.0783 8.1884C94.7115 7.81071 95.1852 7.21626 95.4111 6.51598C94.8162 6.86823 94.1651 7.11618 93.4862 7.24904C93.0296 6.76306 92.4248 6.44094 91.7658 6.3327C91.1067 6.22445 90.4303 6.33615 89.8414 6.65043C89.2526 6.96471 88.7843 7.46401 88.5093 8.07079C88.2342 8.67758 88.1679 9.3579 88.3204 10.0061C87.115 9.94581 85.9358 9.63348 84.8593 9.08943C83.7829 8.54537 82.8332 7.78176 82.0719 6.84813C81.8116 7.29575 81.6619 7.81474 81.6619 8.36745C81.6616 8.86503 81.7845 9.35498 82.0197 9.79384C82.255 10.2327 82.5952 10.6069 83.0103 10.8832C82.5289 10.868 82.0581 10.7383 81.6372 10.505V10.5439C81.6371 11.2418 81.8793 11.9182 82.3225 12.4583C82.7658 12.9985 83.3829 13.3691 84.069 13.5073C83.6225 13.6278 83.1543 13.6456 82.6999 13.5592C82.8935 14.1597 83.2706 14.6848 83.7784 15.061C84.2862 15.4372 84.8994 15.6457 85.532 15.6572C84.4581 16.4976 83.1319 16.9534 81.7667 16.9514C81.5248 16.9515 81.2832 16.9374 81.043 16.9093C82.4288 17.7975 84.0419 18.2689 85.6894 18.2671C91.2664 18.2671 94.3152 13.6624 94.3152 9.6688C94.3152 9.53906 94.312 9.40801 94.3061 9.27827C94.8991 8.85074 95.411 8.32133 95.8178 7.71483L95.8191 7.71289Z" fill="#535399"/>
<ellipse cx="50.4075" cy="12.1637" rx="12.2017" ry="12.1637" fill="white"/>
<path d="M56.3616 9.89817C56.355 9.40684 56.2627 8.92039 56.0889 8.46059C55.9381 8.07275 55.7079 7.72052 55.4129 7.4264C55.1178 7.13229 54.7645 6.90276 54.3755 6.75248C53.9201 6.5821 53.4391 6.48997 52.9529 6.48002C52.3269 6.45212 52.1284 6.44434 50.5392 6.44434C48.9501 6.44434 48.7464 6.44434 48.1249 6.48002C47.6389 6.49004 47.1581 6.58217 46.703 6.75248C46.3139 6.90266 45.9605 7.13215 45.6655 7.42627C45.3704 7.7204 45.1402 8.07268 44.9896 8.46059C44.8183 8.91413 44.7261 9.39353 44.7169 9.87806C44.6889 10.5028 44.6805 10.7006 44.6805 12.2848C44.6805 13.869 44.6805 14.0714 44.7169 14.6916C44.7267 15.1769 44.8184 15.6556 44.9896 16.1104C45.1405 16.4982 45.3709 16.8503 45.666 17.1443C45.9612 17.4383 46.3146 17.6677 46.7037 17.8179C47.1575 17.9951 47.6384 18.0938 48.1256 18.1098C48.7523 18.1377 48.9507 18.1461 50.5399 18.1461C52.129 18.1461 52.3327 18.1461 52.9542 18.1098C53.4404 18.1002 53.9215 18.0083 54.3768 17.838C54.7657 17.6875 55.1189 17.4579 55.414 17.1638C55.709 16.8697 55.9393 16.5176 56.0902 16.1299C56.2613 15.6758 56.3531 15.197 56.3629 14.7111C56.3908 14.087 56.3993 13.8892 56.3993 12.3043C56.398 10.7201 56.398 10.519 56.3616 9.89817ZM50.5353 15.2807C48.8733 15.2807 47.5269 13.9385 47.5269 12.2816C47.5269 10.6247 48.8733 9.28253 50.5353 9.28253C51.3332 9.28253 52.0984 9.5985 52.6626 10.1609C53.2268 10.7234 53.5438 11.4862 53.5438 12.2816C53.5438 13.077 53.2268 13.8398 52.6626 14.4023C52.0984 14.9647 51.3332 15.2807 50.5353 15.2807ZM53.6635 9.87092C53.275 9.87092 52.962 9.55824 52.962 9.17159C52.962 9.0798 52.9801 8.9889 53.0154 8.9041C53.0506 8.81929 53.1023 8.74223 53.1674 8.67732C53.2325 8.61241 53.3098 8.56093 53.3949 8.5258C53.4799 8.49067 53.5711 8.47259 53.6632 8.47259C53.7553 8.47259 53.8465 8.49067 53.9315 8.5258C54.0166 8.56093 54.0939 8.61241 54.159 8.67732C54.2241 8.74223 54.2758 8.81929 54.311 8.9041C54.3463 8.9889 54.3644 9.0798 54.3644 9.17159C54.3644 9.55824 54.0507 9.87092 53.6635 9.87092Z" fill="#535399"/>
<path d="M50.5354 14.2294C51.6147 14.2294 52.4896 13.3572 52.4896 12.2813C52.4896 11.2053 51.6147 10.3331 50.5354 10.3331C49.4561 10.3331 48.5812 11.2053 48.5812 12.2813C48.5812 13.3572 49.4561 14.2294 50.5354 14.2294Z" fill="#535399"/>
</svg>
