<svg width="25" height="25" viewBox="0 0 25 25" fill="none" xmlns="http://www.w3.org/2000/svg">
<ellipse cx="12.4075" cy="12.1637" rx="12.2017" ry="12.1637" fill="white"/>
<path d="M18.3616 9.89817C18.355 9.40684 18.2627 8.92039 18.0889 8.46059C17.9381 8.07275 17.7079 7.72052 17.4129 7.4264C17.1178 7.13229 16.7645 6.90276 16.3755 6.75248C15.9201 6.5821 15.4391 6.48997 14.9529 6.48002C14.3269 6.45212 14.1284 6.44434 12.5392 6.44434C10.9501 6.44434 10.7464 6.44434 10.1249 6.48002C9.63892 6.49004 9.15814 6.58217 8.70303 6.75248C8.31392 6.90266 7.96053 7.13215 7.66549 7.42627C7.37044 7.7204 7.14023 8.07268 6.98959 8.46059C6.81833 8.91413 6.72611 9.39353 6.71692 9.87806C6.68894 10.5028 6.68048 10.7006 6.68048 12.2848C6.68048 13.869 6.68048 14.0714 6.71692 14.6916C6.72668 15.1769 6.81844 15.6556 6.98959 16.1104C7.14049 16.4982 7.37087 16.8503 7.66601 17.1443C7.96115 17.4383 8.31457 17.6677 8.70368 17.8179C9.15754 17.9951 9.63841 18.0938 10.1256 18.1098C10.7523 18.1377 10.9507 18.1461 12.5399 18.1461C14.129 18.1461 14.3327 18.1461 14.9542 18.1098C15.4404 18.1002 15.9215 18.0083 16.3768 17.838C16.7657 17.6875 17.1189 17.4579 17.414 17.1638C17.709 16.8697 17.9393 16.5176 18.0902 16.1299C18.2613 15.6758 18.3531 15.197 18.3629 14.7111C18.3908 14.087 18.3993 13.8892 18.3993 12.3043C18.398 10.7201 18.398 10.519 18.3616 9.89817ZM12.5353 15.2807C10.8733 15.2807 9.52689 13.9385 9.52689 12.2816C9.52689 10.6247 10.8733 9.28253 12.5353 9.28253C13.3332 9.28253 14.0984 9.5985 14.6626 10.1609C15.2268 10.7234 15.5438 11.4862 15.5438 12.2816C15.5438 13.077 15.2268 13.8398 14.6626 14.4023C14.0984 14.9647 13.3332 15.2807 12.5353 15.2807ZM15.6635 9.87092C15.275 9.87092 14.962 9.55824 14.962 9.17159C14.962 9.0798 14.9801 8.9889 15.0154 8.9041C15.0506 8.81929 15.1023 8.74223 15.1674 8.67732C15.2325 8.61241 15.3098 8.56093 15.3949 8.5258C15.4799 8.49067 15.5711 8.47259 15.6632 8.47259C15.7553 8.47259 15.8465 8.49067 15.9315 8.5258C16.0166 8.56093 16.0939 8.61241 16.159 8.67732C16.2241 8.74223 16.2758 8.81929 16.311 8.9041C16.3463 8.9889 16.3644 9.0798 16.3644 9.17159C16.3644 9.55824 16.0507 9.87092 15.6635 9.87092Z" fill="#535399"/>
<path d="M12.5354 14.2294C13.6147 14.2294 14.4896 13.3572 14.4896 12.2813C14.4896 11.2053 13.6147 10.3331 12.5354 10.3331C11.4561 10.3331 10.5812 11.2053 10.5812 12.2813C10.5812 13.3572 11.4561 14.2294 12.5354 14.2294Z" fill="#535399"/>
</svg>
