<svg width="26" height="25" viewBox="0 0 26 25" fill="none" xmlns="http://www.w3.org/2000/svg">
<ellipse cx="13.1107" cy="12.1637" rx="12.2017" ry="12.1637" fill="white"/>
<path d="M20.8191 7.71289C20.2757 7.95291 19.692 8.1151 19.0783 8.1884C19.7115 7.81071 20.1852 7.21626 20.4111 6.51598C19.8162 6.86823 19.1651 7.11618 18.4862 7.24904C18.0296 6.76306 17.4248 6.44094 16.7658 6.3327C16.1067 6.22445 15.4303 6.33615 14.8414 6.65043C14.2526 6.96471 13.7843 7.46401 13.5093 8.07079C13.2342 8.67758 13.1679 9.3579 13.3204 10.0061C12.115 9.94581 10.9358 9.63348 9.85934 9.08943C8.78286 8.54537 7.83316 7.78176 7.07188 6.84813C6.81157 7.29575 6.6619 7.81474 6.6619 8.36745C6.66161 8.86503 6.78452 9.35498 7.01974 9.79384C7.25495 10.2327 7.59519 10.6069 8.01027 10.8832C7.52889 10.868 7.05813 10.7383 6.63717 10.505V10.5439C6.63712 11.2418 6.87927 11.9182 7.32254 12.4583C7.7658 12.9985 8.38287 13.3691 9.06905 13.5073C8.62249 13.6278 8.1543 13.6456 7.69986 13.5592C7.89346 14.1597 8.27057 14.6848 8.7784 15.061C9.28623 15.4372 9.89936 15.6457 10.532 15.6572C9.45809 16.4976 8.13189 16.9534 6.76667 16.9514C6.52484 16.9515 6.28321 16.9374 6.04303 16.9093C7.4288 17.7975 9.04194 18.2689 10.6894 18.2671C16.2664 18.2671 19.3152 13.6624 19.3152 9.6688C19.3152 9.53906 19.312 9.40801 19.3061 9.27827C19.8991 8.85074 20.411 8.32133 20.8178 7.71483L20.8191 7.71289Z" fill="#535399"/>
</svg>
